<svg xmlns:xlink="http://www.w3.org/1999/xlink" width="64" height="64" viewBox="0 0 64 64" fill="none" xmlns="http://www.w3.org/2000/svg" id="svg-131862306_9544">
<g clip-path="url(#svg-131862306_9544_clip0_144_7281)" fill="none">
<path d="M0 0H64V64H0V0Z" fill="#21468B"></path>
<path d="M0 0H64V42.6625H0V0Z" fill="#FFFFFF"></path>
<path d="M0 0H64V21.3375H0V0Z" fill="#AE1C28"></path>
<g clip-path="url(#svg-131862306_9544_clip1_144_7281)" fill="none">
<path d="M0 0H64V21.3375H0V0Z" fill="#FF9933"></path>
<path d="M0 21.3375H64V42.6625H0V21.3375Z" fill="#FFFFFF"></path>
<path d="M0 42.6625H64V64H0V42.6625Z" fill="#128807"></path>
<path d="M32.0001 40.5333C36.7129 40.5333 40.5334 36.7128 40.5334 32C40.5334 27.2872 36.7129 23.4667 32.0001 23.4667C27.2873 23.4667 23.4668 27.2872 23.4668 32C23.4668 36.7128 27.2873 40.5333 32.0001 40.5333Z" fill="#000088"></path>
<path d="M31.9999 39.4666C36.1236 39.4666 39.4665 36.1237 39.4665 32C39.4665 27.8763 36.1236 24.5333 31.9999 24.5333C27.8761 24.5333 24.5332 27.8763 24.5332 32C24.5332 36.1237 27.8761 39.4666 31.9999 39.4666Z" fill="#FFFFFF"></path>
<path d="M32.0002 33.4933C32.8249 33.4933 33.4935 32.8247 33.4935 32C33.4935 31.1752 32.8249 30.5067 32.0002 30.5067C31.1754 30.5067 30.5068 31.1752 30.5068 32C30.5068 32.8247 31.1754 33.4933 32.0002 33.4933Z" fill="#000088"></path>
<path d="M39.3522 33.3581C39.5625 33.3858 39.7554 33.2378 39.7831 33.0275C39.8108 32.8172 39.6628 32.6243 39.4525 32.5967C39.2422 32.569 39.0493 32.717 39.0217 32.9273C38.994 33.1375 39.142 33.3304 39.3522 33.3581Z" fill="#000088"></path>
<path d="M31.9997 39.4667L32.2557 34.9867L31.9997 32.8533L31.7437 34.9867L31.9997 39.4667Z" fill="#000088"></path>
<path d="M38.7498 35.2148C38.9458 35.296 39.1704 35.2029 39.2516 35.007C39.3327 34.811 39.2397 34.5864 39.0437 34.5053C38.8478 34.4241 38.6232 34.5171 38.542 34.7131C38.4609 34.909 38.5539 35.1336 38.7498 35.2148Z" fill="#000088"></path>
<path d="M30.0669 39.2122L31.4737 34.9512L31.7785 32.8243L30.9791 34.8186L30.0669 39.2122Z" fill="#000088"></path>
<path d="M37.6882 36.8524C37.8564 36.9815 38.0975 36.9498 38.2266 36.7815C38.3557 36.6133 38.324 36.3722 38.1557 36.2431C37.9875 36.114 37.7464 36.1458 37.6173 36.314C37.4882 36.4823 37.5199 36.7233 37.6882 36.8524Z" fill="#000088"></path>
<path d="M28.2666 38.4663L30.7283 34.7145L31.5733 32.739L30.2849 34.4585L28.2666 38.4663Z" fill="#000088"></path>
<path d="M36.2387 38.1594C36.3678 38.3276 36.6089 38.3593 36.7771 38.2302C36.9454 38.1011 36.9771 37.8601 36.848 37.6918C36.7189 37.5236 36.4779 37.4918 36.3096 37.6209C36.1414 37.75 36.1096 37.9911 36.2387 38.1594Z" fill="#000088"></path>
<path d="M26.7205 37.2797L30.0694 34.2929L31.3968 32.6034L29.7073 33.9309L26.7205 37.2797Z" fill="#000088"></path>
<path d="M34.4999 39.0465C34.5811 39.2425 34.8057 39.3355 35.0016 39.2543C35.1976 39.1732 35.2906 38.9486 35.2095 38.7526C35.1283 38.5567 34.9037 38.4636 34.7077 38.5448C34.5118 38.626 34.4188 38.8506 34.4999 39.0465Z" fill="#000088"></path>
<path d="M25.5335 35.7333L29.5413 33.715L31.2608 32.4267L29.2853 33.2716L25.5335 35.7333Z" fill="#000088"></path>
<path d="M32.5909 39.4535C32.6186 39.6637 32.8115 39.8117 33.0218 39.7841C33.232 39.7564 33.38 39.5635 33.3524 39.3532C33.3247 39.143 33.1318 38.9949 32.9215 39.0226C32.7113 39.0503 32.5633 39.2432 32.5909 39.4535Z" fill="#000088"></path>
<path d="M24.7876 33.9325L29.1813 33.0203L31.1756 32.2208L29.0487 32.5257L24.7876 33.9325Z" fill="#000088"></path>
<path d="M30.6416 39.3526C30.6139 39.5628 30.7619 39.7557 30.9722 39.7834C31.1824 39.8111 31.3753 39.6631 31.403 39.4528C31.4307 39.2425 31.2827 39.0496 31.0724 39.022C30.8621 38.9943 30.6693 39.1423 30.6416 39.3526Z" fill="#000088"></path>
<path d="M24.5332 32L29.0132 32.256L31.1465 32L29.0132 31.744L24.5332 32Z" fill="#000088"></path>
<path d="M28.7851 38.7505C28.704 38.9464 28.797 39.171 28.9929 39.2522C29.1889 39.3334 29.4135 39.2403 29.4947 39.0444C29.5758 38.8484 29.4828 38.6238 29.2868 38.5427C29.0909 38.4615 28.8663 38.5545 28.7851 38.7505Z" fill="#000088"></path>
<path d="M24.7875 30.0675L29.0485 31.4743L31.1754 31.7791L29.1811 30.9797L24.7875 30.0675Z" fill="#000088"></path>
<path d="M27.1477 37.6884C27.0186 37.8567 27.0503 38.0977 27.2185 38.2268C27.3868 38.356 27.6279 38.3242 27.757 38.156C27.8861 37.9877 27.8543 37.7467 27.6861 37.6176C27.5178 37.4884 27.2768 37.5202 27.1477 37.6884Z" fill="#000088"></path>
<path d="M25.5339 28.2667L29.2856 30.7284L31.2612 31.5734L29.5416 30.285L25.5339 28.2667Z" fill="#000088"></path>
<path d="M25.8411 36.2387C25.6729 36.3678 25.6411 36.6088 25.7702 36.7771C25.8993 36.9453 26.1404 36.9771 26.3086 36.848C26.4769 36.7189 26.5086 36.4778 26.3795 36.3095C26.2504 36.1413 26.0094 36.1096 25.8411 36.2387Z" fill="#000088"></path>
<path d="M26.7208 26.7203L29.7076 30.0691L31.3971 31.3966L30.0696 29.7071L26.7208 26.7203Z" fill="#000088"></path>
<path d="M24.9539 34.5001C24.7579 34.5813 24.6649 34.8059 24.7461 35.0018C24.8272 35.1978 25.0518 35.2908 25.2478 35.2097C25.4437 35.1285 25.5367 34.9039 25.4556 34.7079C25.3744 34.512 25.1498 34.419 24.9539 34.5001Z" fill="#000088"></path>
<path d="M28.267 25.5337L30.2853 29.5415L31.5737 31.261L30.7287 29.2855L28.267 25.5337Z" fill="#000088"></path>
<path d="M24.5469 32.5912C24.3366 32.6188 24.1886 32.8117 24.2163 33.022C24.244 33.2323 24.4369 33.3803 24.6471 33.3526C24.8574 33.3249 25.0054 33.132 24.9777 32.9217C24.95 32.7115 24.7571 32.5635 24.5469 32.5912Z" fill="#000088"></path>
<path d="M30.0674 24.7878L30.9797 29.1814L31.7791 31.1758L31.4742 29.0489L30.0674 24.7878Z" fill="#000088"></path>
<path d="M24.6478 30.6419C24.4375 30.6143 24.2446 30.7623 24.2169 30.9725C24.1892 31.1828 24.3372 31.3757 24.5475 31.4034C24.7578 31.4311 24.9507 31.283 24.9783 31.0728C25.006 30.8625 24.858 30.6696 24.6478 30.6419Z" fill="#000088"></path>
<path d="M32.0003 24.5334L31.7443 29.0134L32.0003 31.1467L32.2563 29.0134L32.0003 24.5334Z" fill="#000088"></path>
<path d="M25.2502 28.7852C25.0542 28.7041 24.8296 28.7971 24.7484 28.9931C24.6673 29.189 24.7603 29.4136 24.9563 29.4948C25.1522 29.5759 25.3768 29.4829 25.458 29.287C25.5391 29.091 25.4461 28.8664 25.2502 28.7852Z" fill="#000088"></path>
<path d="M33.9331 24.7878L32.5263 29.0489L32.2215 31.1758L33.0209 29.1814L33.9331 24.7878Z" fill="#000088"></path>
<path d="M26.3118 27.1476C26.1436 27.0185 25.9025 27.0502 25.7734 27.2185C25.6443 27.3867 25.676 27.6278 25.8443 27.7569C26.0125 27.886 26.2536 27.8543 26.3827 27.686C26.5118 27.5178 26.4801 27.2767 26.3118 27.1476Z" fill="#000088"></path>
<path d="M35.7334 25.5337L33.2717 29.2855L32.4267 31.261L33.7151 29.5415L35.7334 25.5337Z" fill="#000088"></path>
<path d="M27.7613 25.8407C27.6322 25.6724 27.3911 25.6407 27.2229 25.7698C27.0546 25.8989 27.0229 26.14 27.152 26.3082C27.2811 26.4765 27.5221 26.5082 27.6904 26.3791C27.8586 26.25 27.8904 26.0089 27.7613 25.8407Z" fill="#000088"></path>
<path d="M37.2795 26.7203L33.9306 29.7071L32.6032 31.3966L34.2927 30.0691L37.2795 26.7203Z" fill="#000088"></path>
<path d="M29.5001 24.9535C29.4189 24.7576 29.1943 24.6645 28.9984 24.7457C28.8024 24.8268 28.7094 25.0515 28.7905 25.2474C28.8717 25.4433 29.0963 25.5364 29.2923 25.4552C29.4882 25.3741 29.5812 25.1494 29.5001 24.9535Z" fill="#000088"></path>
<path d="M38.4665 28.2667L34.4587 30.285L32.7392 31.5734L34.7147 30.7284L38.4665 28.2667Z" fill="#000088"></path>
<path d="M31.4091 24.5466C31.3814 24.3363 31.1885 24.1883 30.9782 24.216C30.768 24.2437 30.62 24.4365 30.6476 24.6468C30.6753 24.8571 30.8682 25.0051 31.0785 24.9774C31.2887 24.9497 31.4367 24.7568 31.4091 24.5466Z" fill="#000088"></path>
<path d="M39.2124 30.0675L34.8187 30.9798L32.8244 31.7792L34.9513 31.4743L39.2124 30.0675Z" fill="#000088"></path>
<path d="M33.3584 24.6475C33.3861 24.4372 33.2381 24.2443 33.0278 24.2166C32.8176 24.189 32.6247 24.337 32.597 24.5472C32.5693 24.7575 32.7173 24.9504 32.9276 24.9781C33.1379 25.0058 33.3307 24.8577 33.3584 24.6475Z" fill="#000088"></path>
<path d="M39.4668 32L34.9868 31.744L32.8535 32L34.9868 32.256L39.4668 32Z" fill="#000088"></path>
<path d="M35.2149 25.2496C35.296 25.0536 35.203 24.829 35.0071 24.7478C34.8111 24.6667 34.5865 24.7597 34.5053 24.9557C34.4242 25.1516 34.5172 25.3762 34.7132 25.4574C34.9091 25.5385 35.1337 25.4455 35.2149 25.2496Z" fill="#000088"></path>
<path d="M39.2125 33.9325L34.9515 32.5258L32.8246 32.2209L34.8189 33.0203L39.2125 33.9325Z" fill="#000088"></path>
<path d="M36.8528 26.3116C36.9819 26.1433 36.9502 25.9023 36.7819 25.7732C36.6137 25.644 36.3726 25.6758 36.2435 25.844C36.1144 26.0123 36.1462 26.2533 36.3144 26.3824C36.4827 26.5116 36.7237 26.4798 36.8528 26.3116Z" fill="#000088"></path>
<path d="M38.4666 35.7333L34.7148 33.2716L32.7393 32.4266L34.4588 33.715L38.4666 35.7333Z" fill="#000088"></path>
<path d="M38.1594 27.7613C38.3276 27.6322 38.3594 27.3911 38.2303 27.2229C38.1012 27.0546 37.8601 27.0229 37.6919 27.152C37.5236 27.2811 37.4919 27.5222 37.621 27.6904C37.7501 27.8587 37.9911 27.8904 38.1594 27.7613Z" fill="#000088"></path>
<path d="M37.2797 37.2797L34.2929 33.9308L32.6034 32.6034L33.9309 34.2929L37.2797 37.2797Z" fill="#000088"></path>
<path d="M39.0466 29.4999C39.2426 29.4187 39.3356 29.1941 39.2544 28.9982C39.1733 28.8022 38.9487 28.7092 38.7527 28.7903C38.5568 28.8715 38.4637 29.0961 38.5449 29.2921C38.6261 29.488 38.8507 29.581 39.0466 29.4999Z" fill="#000088"></path>
<path d="M35.7334 38.4663L33.7151 34.4585L32.4268 32.739L33.2717 34.7145L35.7334 38.4663Z" fill="#000088"></path>
<path d="M39.4536 31.4088C39.6639 31.3812 39.8119 31.1883 39.7842 30.978C39.7565 30.7677 39.5636 30.6197 39.3534 30.6474C39.1431 30.6751 38.9951 30.868 39.0228 31.0783C39.0505 31.2885 39.2434 31.4365 39.4536 31.4088Z" fill="#000088"></path>
<path d="M33.9331 39.2122L33.0208 34.8186L32.2214 32.8242L32.5263 34.9511L33.9331 39.2122Z" fill="#000088"></path>
</g>
</g>
<defs>
<clipPath id="svg-131862306_9544_clip0_144_7281">
<rect width="64" height="64" fill="white"></rect>
</clipPath>
<clipPath id="svg-131862306_9544_clip1_144_7281">
<rect width="64" height="64" fill="white"></rect>
</clipPath>
</defs>
</svg>