<svg xmlns:xlink="http://www.w3.org/1999/xlink" width="8" height="8" viewBox="0 0 8 8" fill="none" xmlns="http://www.w3.org/2000/svg" id="svg-1619825251_857">
<path d="M1.3265 0.66735C1.3265 0.490358 1.39681 0.320615 1.52196 0.195462C1.64711 0.07031 1.81686 0 1.99385 0H7.33265C7.50964 0 7.67939 0.07031 7.80454 0.195462C7.92969 0.320615 8 0.490358 8 0.66735V6.00615C8 6.18314 7.92969 6.35289 7.80454 6.47804C7.67939 6.60319 7.50964 6.6735 7.33265 6.6735C7.15566 6.6735 6.98591 6.60319 6.86076 6.47804C6.73561 6.35289 6.6653 6.18314 6.6653 6.00615V2.27833L1.13097 7.81267C1.0051 7.93423 0.836528 8.0015 0.661551 7.99997C0.486574 7.99845 0.319195 7.92827 0.195463 7.80454C0.0717304 7.6808 0.00154573 7.51342 2.52275e-05 7.33845C-0.00149528 7.16347 0.0657701 6.9949 0.187333 6.86903L5.72167 1.3347H1.99385C1.81686 1.3347 1.64711 1.26439 1.52196 1.13924C1.39681 1.01409 1.3265 0.844342 1.3265 0.66735Z" fill="#051118"></path>
</svg>