<svg xmlns:xlink="http://www.w3.org/1999/xlink" width="65" height="65" viewBox="0 0 65 65" fill="none" xmlns="http://www.w3.org/2000/svg" id="svg-446223038_1200">
<g clip-path="url(#svg-446223038_1200_clip0_144_7170)" fill="none">
<path d="M0.181152 0.921448H64.1812V64.9214H0.181152V0.921448Z" fill="#012169"></path>
<path d="M64.1812 0.921448V8.92145L40.4312 32.9214L64.1812 56.2964V64.9214H55.8062L31.9312 41.4214L8.68115 64.9214H0.181152V56.4214L23.4312 33.0464L0.181152 10.1714V0.921448H7.93115L31.9312 24.4214L55.1812 0.921448H64.1812Z" fill="#FFFFFF"></path>
<path d="M23.1812 41.4214L24.5562 45.6714L5.43115 64.9214H0.181152V64.5464L23.1812 41.4214ZM38.6812 39.9214L45.4312 40.9214L64.1812 59.2964V64.9214L38.6812 39.9214ZM64.1812 0.921448L40.1812 25.4214L39.6812 19.9214L58.4312 0.921448H64.1812ZM0.181152 1.04645L24.3062 24.6714L16.9312 23.6714L0.181152 7.04645V1.04645Z" fill="#C8102E"></path>
<path d="M22.1812 0.921448V64.9214H42.1812V0.921448H22.1812ZM0.181152 22.9214V42.9214H64.1812V22.9214H0.181152Z" fill="#FFFFFF"></path>
<path d="M0.181152 26.9214V38.9214H64.1812V26.9214H0.181152ZM26.1812 0.921448V64.9214H38.1812V0.921448H26.1812Z" fill="#C8102E"></path>
</g>
<defs>
<clipPath id="svg-446223038_1200_clip0_144_7170">
<rect width="64" height="64" fill="white" transform="translate(0.181152 0.921448)"></rect>
</clipPath>
</defs>
</svg>